<?xml version="1.0" encoding="utf-8"?>
<!-- Generator: Adobe Illustrator 27.0.0, SVG Export Plug-In . SVG Version: 6.00 Build 0)  -->
<svg version="1.1" id="Capa_1" xmlns="http://www.w3.org/2000/svg" xmlns:xlink="http://www.w3.org/1999/xlink" x="0px" y="0px"
	 viewBox="0 0 800 800" style="enable-background:new 0 0 800 800;" xml:space="preserve">
<style type="text/css">
	.st0{fill:#87F21C;}
</style>
<g>
	<g>
		<path class="st0" d="M171.9,761.4c0.9,21.6,18.6,38.6,40.2,38.6h375.9c21.6,0,39.3-17,40.2-38.6L655,194.8H145L171.9,761.4z
			 M485,335.5c0-9,7.3-16.4,16.4-16.4h26.2c9,0,16.4,7.3,16.4,16.4v323.7c0,9-7.3,16.4-16.4,16.4h-26.2c-9,0-16.4-7.3-16.4-16.4
			V335.5z M370.6,335.5c0-9,7.3-16.4,16.4-16.4h26.2c9,0,16.4,7.3,16.4,16.4v323.7c0,9-7.3,16.4-16.4,16.4h-26.2
			c-9,0-16.4-7.3-16.4-16.4V335.5L370.6,335.5z M256.1,335.5c0-9,7.3-16.4,16.4-16.4h26.2c9,0,16.4,7.3,16.4,16.4v323.7
			c0,9-7.3,16.4-16.4,16.4h-26.2c-9,0-16.4-7.3-16.4-16.4V335.5z"/>
		<path class="st0" d="M672.9,41.2H499.5V8.4c0-4.7-3.8-8.4-8.4-8.4H309c-4.7,0-8.4,3.8-8.4,8.4v32.8H127.1
			c-14,0-25.3,11.3-25.3,25.3v79.4h596.3V66.5C698.1,52.5,686.8,41.2,672.9,41.2z"/>
	</g>
</g>
</svg>
